<svg version="1.2" xmlns="http://www.w3.org/2000/svg" viewBox="0 0 100 47" width="80" height="40">
	<title>Interior Design landing page-svg</title>
	<style>
		.s0 { fill: #ffffff } 
		.s1 { fill: #231f20 } 
	</style>
	<path id="Layer" class="s0" d="m0 23.5c0-13 10.5-23.5 23.5-23.5h53c13 0 23.5 10.5 23.5 23.5 0 13-10.5 23.5-23.5 23.5h-53c-13 0-23.5-10.5-23.5-23.5z"/>
	<path id="Layer" fill-rule="evenodd" class="s1" d="m64 17.2c-0.3 3.5-2 5.8-3.7 8q-0.2 0.3-0.4 0.6-0.4 0.5-0.8 1c-0.6 0.8-1.2 1.6-1.8 2.5-0.9 1.4-1.8 3.4-1.7 4.3 0 0.1 0.1 0.3 0.3 0.5 0.2 0.2 0.5 0.6 0.3 1.3-0.2 0.8-1.3 0.8-2.3 0.8h-6.6c-1.2 0-2.3 0-2.5-0.8-0.2-0.7 0.1-1 0.3-1.3 0.2-0.1 0.3-0.3 0.3-0.6 0.1-0.5-0.3-1.3-0.6-2l-0.1-0.2c-0.7-1.7-1.8-3-2.8-4.3q-0.5-0.7-0.9-1.2l-0.1-0.1c-1.6-2.3-3.6-5-3.9-8.6-0.3-4.7 2-8.1 4-10.2 1.8-1.8 4.9-3.9 9.3-3.9q0.6 0 1.1 0c2.1 0.2 3.7 0.6 5.3 1.5 1.7 0.8 2.9 2 3.7 2.9 1.5 1.6 3.9 5 3.6 9.8zm-6.1 6.8c1.8-2.3 3.6-4.7 3.4-8.5-0.4-5.2-4.6-9.4-9.8-9.9q-0.5 0-1 0c-2.9 0-5.5 1.1-7.6 3.1-1.6 1.7-3.5 4.5-3.2 8.6 0.3 2.6 2 4.8 3.5 6.8l0.2 0.3q0.2 0.3 0.5 0.6c1.9 2.5 3.7 4.9 4.2 8.6h4.8c0.4-3.5 2.2-5.8 4.1-8.3q0.3-0.4 0.6-0.8 0.2-0.2 0.3-0.5z"/>
</svg>