<svg version="1.2" xmlns="http://www.w3.org/2000/svg" viewBox="0 0 110 60" width="110" height="60"><style>.a{fill:#fff}</style><path class="a" d="m0 30.5c0-13 10.5-23.5 23.5-23.5h53c13 0 23.5 10.5 23.5 23.5 0 13-10.5 23.5-23.5 23.5h-53c-13 0-23.5-10.5-23.5-23.5z"/><path  d="m53.7 21.6l9.3 0.2-0.5 23.2-9.3-0.2c0.7-1.6 1.9-2.9 1.9-4.3q0-0.1 0-0.2c0-1.1-0.5-2.1-1.3-2.9-0.8-0.8-1.9-1.2-3.1-1.2-1.1 0-2.2 0.4-3 1.2-0.8 0.7-1.3 1.8-1.3 2.9 0.3 2.2 1.2 2.8 1.9 4.4l-9.5-0.2 0.2-9.4c-1.8 0.7-2.5 1.6-4.7 2-1.2 0-2.3-0.5-3.1-1.3-0.8-0.8-1.2-1.9-1.2-3 0-1.1 0.4-2.2 1.2-2.9 0.8-0.8 1.9-1.3 3.1-1.3q0 0 0.1 0c1.6 0 2.9 1.2 4.7 1.9l0.1-9.2 9.6 0.2c-0.7-1.6-1.6-2.2-1.9-4.3 0-1.1 0.5-2.2 1.3-3 0.8-0.8 1.9-1.2 3-1.2 1.2 0 2.2 0.4 3.1 1.2 0.8 0.8 1.2 1.9 1.3 3q0 0.1 0 0.1c-0.1 1.4-1.2 2.7-1.9 4.3z"/></svg>